<svg width="158" height="27" viewBox="0 0 158 27" fill="none" xmlns="http://www.w3.org/2000/svg">
<path d="M2.97461 3.48047V23.959H8.10742H8.125C9.50781 23.959 10.709 23.4609 11.7285 22.4648C12.7363 21.4805 13.2402 20.2852 13.2402 18.8789V8.54297C13.2402 7.14844 12.7363 5.95312 11.7285 4.95703C10.7207 3.96094 9.51953 3.46289 8.125 3.46289H8.10742L2.97461 3.48047ZM8.10742 26.6484H0.162109V2.00391L2.97461 0.773438H8.10742H8.125C10.3164 0.773438 12.1855 1.54102 13.7324 3.07617C15.2793 4.59961 16.0527 6.43945 16.0527 8.5957V18.8262C16.0527 20.9824 15.2793 22.8281 13.7324 24.3633C12.1855 25.8867 10.3164 26.6484 8.125 26.6484H8.10742ZM20.3945 27V8.26172C20.3945 6.10547 21.168 4.26562 22.7148 2.74219C24.2617 1.20703 26.1309 0.439453 28.3223 0.439453C30.5137 0.439453 32.3828 1.20703 33.9297 2.74219C35.4766 4.26562 36.25 6.10547 36.25 8.26172V25.7695L33.4375 27V15.1348H23.207V25.7695L20.3945 27ZM23.207 12.3223H33.4375V8.20898C33.4258 6.80273 32.9219 5.60742 31.9258 4.62305C30.918 3.62695 29.7168 3.12891 28.3223 3.12891C26.916 3.12891 25.709 3.62695 24.7012 4.62305C23.7051 5.60742 23.207 6.78516 23.207 8.15625V8.20898V12.3223ZM40.3633 27V5.2207C40.3633 3.9082 40.832 2.7832 41.7695 1.8457C42.707 0.908203 43.8379 0.439453 45.1621 0.439453C46.5332 0.439453 47.6641 0.896484 48.5547 1.81055C49.4922 0.896484 50.6172 0.439453 51.9297 0.439453C53.3359 0.439453 54.4785 0.896484 55.3574 1.81055C56.248 2.73633 56.6992 3.87891 56.7109 5.23828V25.7695L53.8984 27L53.916 5.30859C53.916 4.72266 53.7227 4.22461 53.3359 3.81445C52.9492 3.4043 52.4922 3.19922 51.9648 3.19922C51.4141 3.19922 50.9453 3.4043 50.5586 3.81445C50.1602 4.23633 49.9609 4.72852 49.9609 5.29102V5.30859L49.9434 25.7695L47.1309 27L47.1484 5.30859C47.1484 4.72266 46.9551 4.22461 46.5684 3.81445C46.1816 3.4043 45.7246 3.19922 45.1973 3.19922C44.6582 3.19922 44.1895 3.4043 43.791 3.81445C43.3926 4.22461 43.1934 4.72266 43.1934 5.30859L43.1758 25.7695L40.3633 27ZM60.8242 27V8.26172C60.8242 6.10547 61.5977 4.26562 63.1445 2.74219C64.6914 1.20703 66.5605 0.439453 68.752 0.439453C70.9434 0.439453 72.8125 1.20703 74.3594 2.74219C75.9062 4.26562 76.6797 6.10547 76.6797 8.26172V25.7695L73.8672 27V15.1348H63.6367V25.7695L60.8242 27ZM63.6367 12.3223H73.8672V8.20898C73.8555 6.80273 73.3516 5.60742 72.3555 4.62305C71.3477 3.62695 70.1465 3.12891 68.752 3.12891C67.3457 3.12891 66.1387 3.62695 65.1309 4.62305C64.1348 5.60742 63.6367 6.78516 63.6367 8.15625V8.20898V12.3223ZM83.834 3.48047V23.959H88.9668H88.9844C90.3672 23.959 91.5684 23.4609 92.5879 22.4648C93.5957 21.4805 94.0996 20.2852 94.0996 18.8789V8.54297C94.0996 7.14844 93.5957 5.95312 92.5879 4.95703C91.5801 3.96094 90.3789 3.46289 88.9844 3.46289H88.9668L83.834 3.48047ZM88.9668 26.6484H81.0215V2.00391L83.834 0.773438H88.9668H88.9844C91.1758 0.773438 93.0449 1.54102 94.5918 3.07617C96.1387 4.59961 96.9121 6.43945 96.9121 8.5957V18.8262C96.9121 20.9824 96.1387 22.8281 94.5918 24.3633C93.0449 25.8867 91.1758 26.6484 88.9844 26.6484H88.9668ZM101.254 27V8.26172C101.254 6.10547 102.027 4.26562 103.574 2.74219C105.121 1.20703 106.99 0.439453 109.182 0.439453C111.373 0.439453 113.242 1.20703 114.789 2.74219C116.336 4.26562 117.109 6.10547 117.109 8.26172V25.7695L114.297 27V15.1348H104.066V25.7695L101.254 27ZM104.066 12.3223H114.297V8.20898C114.285 6.80273 113.781 5.60742 112.785 4.62305C111.777 3.62695 110.576 3.12891 109.182 3.12891C107.775 3.12891 106.568 3.62695 105.561 4.62305C104.564 5.60742 104.066 6.78516 104.066 8.15625V8.20898V12.3223ZM121.223 27V5.2207C121.223 3.9082 121.691 2.7832 122.629 1.8457C123.566 0.908203 124.697 0.439453 126.021 0.439453C127.393 0.439453 128.523 0.896484 129.414 1.81055C130.352 0.896484 131.477 0.439453 132.789 0.439453C134.195 0.439453 135.338 0.896484 136.217 1.81055C137.107 2.73633 137.559 3.87891 137.57 5.23828V25.7695L134.758 27L134.775 5.30859C134.775 4.72266 134.582 4.22461 134.195 3.81445C133.809 3.4043 133.352 3.19922 132.824 3.19922C132.273 3.19922 131.805 3.4043 131.418 3.81445C131.02 4.23633 130.82 4.72852 130.82 5.29102V5.30859L130.803 25.7695L127.99 27L128.008 5.30859C128.008 4.72266 127.814 4.22461 127.428 3.81445C127.041 3.4043 126.584 3.19922 126.057 3.19922C125.518 3.19922 125.049 3.4043 124.65 3.81445C124.252 4.22461 124.053 4.72266 124.053 5.30859L124.035 25.7695L121.223 27ZM149.594 11.0391C151.879 11.2969 153.748 12.1289 155.201 13.5352C156.748 15.0352 157.521 16.875 157.521 19.0547V19.1074C157.521 21.334 156.76 23.2031 155.236 24.7148C153.701 26.2383 151.832 27 149.629 27C147.402 27 145.533 26.2383 144.021 24.7148C142.475 23.1445 141.701 21.2988 141.701 19.1777V18.9492L144.514 17.7188V19.2305C144.514 20.6367 145.018 21.832 146.025 22.8164C147.033 23.8125 148.234 24.3105 149.629 24.3105C151.047 24.3105 152.254 23.8125 153.25 22.8164C154.246 21.8086 154.744 20.6074 154.744 19.2129C154.744 17.748 154.264 16.5586 153.303 15.6445C152.201 14.6016 151 14.0332 149.699 13.9395C147.473 13.7637 145.727 13.043 144.461 11.7773C143.148 10.4766 142.492 8.90625 142.492 7.06641C142.492 5.21484 143.137 3.65039 144.426 2.37305C145.715 1.08398 147.273 0.439453 149.102 0.439453C150.953 0.439453 152.518 1.08398 153.795 2.37305C155.096 3.68555 155.746 5.24414 155.746 7.04883V7.22461L152.934 8.49023V7.10156C152.91 6.01172 152.535 5.10938 151.809 4.39453C151.047 3.64453 150.145 3.26953 149.102 3.26953C148.059 3.26953 147.174 3.63281 146.447 4.35938C145.697 5.12109 145.322 6.02344 145.322 7.06641C145.322 8.10938 145.697 9.00586 146.447 9.75586C147.15 10.459 148.199 10.8867 149.594 11.0391Z" fill="#F8EEEF"/>
</svg>
